<svg width="27" height="24" viewBox="0 0 27 24" fill="none" xmlns="http://www.w3.org/2000/svg">
<path fill-rule="evenodd" clip-rule="evenodd" d="M11.7663 2.44311C6.59098 2.44311 2.39554 6.72188 2.39554 12C2.39554 17.2781 6.59098 21.5569 11.7663 21.5569C16.9417 21.5569 21.1371 17.2781 21.1371 12C21.1371 11.1731 21.0344 10.3725 20.8419 9.60987L23.1619 9.00091C23.4041 9.96079 23.5326 10.966 23.5326 12C23.5326 18.6274 18.2647 24 11.7663 24C5.26796 24 0 18.6274 0 12C0 5.37258 5.26796 0 11.7663 0C14.5438 0 17.0995 0.983005 19.1123 2.62552L17.6157 4.53316C16.0123 3.22474 13.9804 2.44311 11.7663 2.44311Z" fill="#2C2C2C"/>
<path fill-rule="evenodd" clip-rule="evenodd" d="M26.0027 2.08301L11.769 16.5995L7.04688 11.7836L8.74078 10.0561L11.769 13.1444L24.3088 0.355469L26.0027 2.08301Z" fill="#00A6CA"/>
</svg>
