<svg width="23" height="20" viewBox="0 0 23 20" fill="none" xmlns="http://www.w3.org/2000/svg">
<path d="M10.0525 0.00962102C10.8773 -1.46951e-07 11.5468 0.0577272 12.1387 0.182802C12.6142 0.279014 13.3613 0.500301 13.7882 0.663861C14.2152 0.82742 14.9235 1.17378 15.3699 1.44317C15.8065 1.70295 16.1655 1.9531 16.1655 1.99158C16.1655 2.03969 15.8259 2.40529 15.4087 2.819C15.0011 3.22309 14.6324 3.55983 14.5936 3.55983C14.5451 3.55983 14.2637 3.40589 13.9629 3.22309C13.6524 3.04991 12.9829 2.76127 12.4783 2.58809C11.7409 2.34756 11.343 2.2706 10.4892 2.23211C9.7032 2.20325 9.20833 2.23211 8.59703 2.35719C8.14098 2.44378 7.49087 2.6362 7.14155 2.7709C6.79224 2.91521 6.20034 3.22309 5.83162 3.47324C5.4629 3.71377 4.88071 4.18521 4.5411 4.53157C4.20148 4.86831 3.77454 5.35899 3.59989 5.62838C3.42523 5.88815 3.14384 6.38845 2.97888 6.73482C2.81393 7.08118 2.59075 7.70655 2.48402 8.12989C2.33847 8.67829 2.27055 9.20746 2.27055 9.95791C2.26084 10.7565 2.31906 11.2183 2.47432 11.834C2.60046 12.2862 2.86244 12.9982 3.07591 13.4215C3.28938 13.8449 3.69692 14.4702 3.96861 14.8166C4.25 15.163 4.78368 15.6921 5.1621 16C5.53082 16.3079 6.18094 16.7312 6.60788 16.9333C7.03482 17.1449 7.73345 17.4047 8.16039 17.5201C8.75228 17.6837 9.20833 17.7318 10.101 17.7318C10.9937 17.7318 11.4498 17.6837 12.0417 17.5201C12.4686 17.4047 13.1284 17.1642 13.4971 16.9814C13.8659 16.7986 14.4772 16.4233 14.8556 16.1443C15.2243 15.8653 15.7871 15.3265 16.0976 14.9609C16.4081 14.5953 16.8642 13.893 17.097 13.4215C17.3299 12.9501 17.6113 12.2093 17.718 11.7859C17.8539 11.2664 17.9121 10.6987 17.9121 9.092L18.8339 8.17799C19.3385 7.67769 19.7751 7.28322 19.7945 7.31209C19.8236 7.34095 19.911 7.66807 19.9983 8.03367C20.0856 8.43776 20.1438 9.20746 20.1438 9.95791C20.1438 10.7949 20.0856 11.4973 19.9595 12.0746C19.8624 12.546 19.6296 13.3061 19.4452 13.7583C19.2705 14.2105 18.863 14.9705 18.5525 15.442C18.242 15.9134 17.6307 16.6542 17.1941 17.0776C16.7671 17.5105 16.0588 18.0782 15.6318 18.3572C15.2049 18.6362 14.5257 18.9922 14.1279 19.1654C13.73 19.3289 13.1187 19.5406 12.7694 19.6368C12.4201 19.7426 11.6632 19.8677 11.0713 19.9351C10.2563 20.0216 9.77112 20.0216 9.03368 19.9351C8.5 19.8677 7.73345 19.733 7.33562 19.6176C6.93778 19.5117 6.29737 19.2808 5.92865 19.1076C5.55993 18.9345 4.93893 18.6073 4.57021 18.3668C4.20148 18.1263 3.59018 17.6548 3.22146 17.3085C2.85274 16.9717 2.28995 16.3464 1.96975 15.923C1.65925 15.4997 1.23231 14.807 1.01884 14.3836C0.815069 13.9603 0.543379 13.2483 0.407534 12.7962C0.281393 12.344 0.126142 11.5454 0.0582192 11.0162C-0.0194064 10.3235 -0.0194064 9.76548 0.0582192 9.0439C0.106735 8.48587 0.24258 7.70655 0.359018 7.31209C0.465753 6.91762 0.756849 6.17679 0.989726 5.67649C1.23231 5.17619 1.63014 4.48346 1.88242 4.1371C2.1347 3.79074 2.60046 3.25195 2.92066 2.93446C3.24087 2.61696 3.74543 2.17438 4.03653 1.96272C4.32763 1.74143 4.8516 1.41431 5.20091 1.22189C5.55023 1.02946 6.14212 0.760072 6.51084 0.615755C6.87957 0.481058 7.55879 0.288635 8.01484 0.192423C8.54852 0.0769693 9.26655 0.00962102 10.0525 0.00962102ZM21.0656 0L22.6667 1.58749L16.7768 7.43716C13.5263 10.6603 10.7511 13.3542 10.5862 13.4408C10.3921 13.537 10.1657 13.5691 9.90696 13.537C9.55765 13.4793 9.32477 13.2868 7.64612 11.6224C6.62728 10.6025 5.7831 9.727 5.7831 9.66927C5.7831 9.61155 6.10331 9.25556 6.51084 8.87072C6.90868 8.49549 7.26769 8.17799 7.30651 8.17799C7.34532 8.17799 7.99543 8.78413 10.101 10.8719L15.5833 5.43596L21.0656 0Z" fill="#00A6CA"/>
</svg>
