<svg width="38" height="32" viewBox="0 0 38 32" fill="none" xmlns="http://www.w3.org/2000/svg">
<circle cx="16" cy="16" r="16" fill="#00A6CA" fill-opacity="0.1"/>
<g clip-path="url(#clip0_1250_28047)">
<path d="M35.138 7.94508L35.7448 8.22285C36.0818 8.37841 36.5313 8.70063 36.7448 8.94508C36.9695 9.18952 37.2054 9.54508 37.2841 9.72285C37.3515 9.90063 37.4526 10.1784 37.5874 10.6117L24.7897 10.5229C14.3066 10.4562 11.9358 10.4673 11.4301 10.734L11.4077 18.4229C11.374 25.1673 11.3515 26.1117 11.2054 26.1117C11.1155 26.1117 10.8459 26.034 10.6212 25.9451C10.3852 25.8451 10.0032 25.5784 9.76723 25.3562C9.53127 25.134 9.2279 24.7451 9.09307 24.5006C8.84588 24.0562 8.84588 23.9895 8.81217 17.2784C8.7897 11.5117 8.81217 10.4229 8.95824 10.0006C9.04813 9.72285 9.30655 9.27841 9.54251 9.01174C9.77846 8.74508 10.1605 8.43396 10.3964 8.32285C10.6212 8.20063 11.0032 8.0673 11.2391 8.01174C11.4751 7.95619 16.6436 7.91174 35.138 7.94508ZM34.9695 12.7784H37.5537L37.5313 18.4117C37.4976 23.934 37.4976 24.0673 37.2616 24.5006C37.1268 24.7451 36.7897 25.1562 36.4976 25.4117C36.1605 25.7229 35.7785 25.9451 35.3964 26.0562C34.9021 26.2006 33.9133 26.2229 24.52 26.2229V28.5562H29.9133V31.1117H16.4301V28.5562H21.8234V26.2229H13.7335V23.6673H24.1605C33.8684 23.6673 34.5875 23.6451 34.7785 23.4673C34.9582 23.2895 34.9807 22.9229 34.9695 18.0229V12.7784Z" fill="#00A6CA"/>
</g>
<defs>
<clipPath id="clip0_1250_28047">
<rect width="30" height="25" fill="white" transform="translate(8 7)"/>
</clipPath>
</defs>
</svg>
