<svg width="36" height="36" viewBox="0 0 36 36" fill="none" xmlns="http://www.w3.org/2000/svg">
<path fill-rule="evenodd" clip-rule="evenodd" d="M14.1389 0C19.7022 0 21.0967 0.0286852 21.6922 0.200797C22.099 0.315538 22.6945 0.616733 23.0431 0.846215C23.3772 1.09004 23.813 1.56335 24.0018 1.89323C24.2052 2.23745 24.394 2.68207 24.5247 3.2988H11.5969L11.5533 5.56494C11.5098 7.58725 11.4662 7.90279 11.1466 8.59124C10.9287 9.06454 10.5511 9.58088 10.1443 9.9251C9.78121 10.2263 9.20018 10.5705 8.83704 10.6853C8.35769 10.843 7.51521 10.9004 3.31729 10.9004V18.545C3.31729 24.5116 3.34635 26.2183 3.4916 26.3618C3.63686 26.4908 4.6246 26.5339 11.4517 26.5339V12.9801L14.7635 9.70996C17.2038 7.28606 18.1916 6.41116 18.5692 6.29641C18.9033 6.19602 21.547 6.16733 26.0499 6.19602C32.3831 6.23904 33.0803 6.26773 33.6033 6.49721C33.9228 6.64064 34.4312 6.9992 34.7508 7.28606C35.0558 7.57291 35.4626 8.14661 36 9.251V21.012C36 28.3554 35.9419 32.9737 35.8547 33.3179C35.7676 33.6048 35.4916 34.1211 35.2301 34.4653C34.9687 34.7952 34.4603 35.2398 34.0971 35.4406C33.7485 35.6558 33.2837 35.8709 32.6591 36V9.89641L32.3395 9.68128C32.0635 9.49482 31.2646 9.46614 22.9269 9.46614L22.8833 11.9474C22.8543 14.3139 22.8398 14.443 22.4766 15.0598C22.2733 15.4183 21.8375 15.9203 21.5325 16.1785C21.2274 16.4223 20.6754 16.7378 20.3123 16.8526C19.833 17.0104 19.0195 17.0677 14.7926 17.0677V24.7124C14.7926 30.6789 14.8216 32.3857 14.9669 32.5291C15.1121 32.6725 16.739 32.7012 29.6087 32.7012V36H14.4294L13.7031 35.6558C13.3109 35.4693 12.7735 35.0964 12.512 34.8382C12.2651 34.5657 11.9165 34.0637 11.7567 33.7052C11.5098 33.1745 11.4517 32.7586 11.4517 29.8327H7.35542C4.07263 29.8327 3.11394 29.7896 2.59101 29.6175C2.22787 29.5028 1.6759 29.1873 1.37086 28.9434C1.06582 28.6853 0.63005 28.1833 0.0490244 27.1793L0.00544705 17.2829C-0.0090786 11.847 0.00544749 7.22869 0.0490244 7.02789C0.107127 6.82709 1.51612 5.26375 3.21562 3.51394C5.37994 1.30518 6.45483 0.315538 6.80345 0.186454C7.18112 0.0573704 9.1566 0.0143426 14.1389 0ZM3.97095 7.60159C7.22469 7.61594 7.79119 7.55857 7.92192 7.42948C8.05266 7.3004 8.09623 6.71235 8.06718 5.39283L8.0236 3.52829L3.97095 7.60159ZM15.4462 13.7689C18.729 13.7689 19.1793 13.7259 19.3536 13.5538C19.5424 13.3817 19.586 12.9944 19.586 11.5458C19.586 10.5562 19.5715 9.75299 19.5424 9.75299C19.5279 9.75299 18.5983 10.6566 17.4798 11.761L15.4462 13.7689Z" fill="#00A6CA"/>
</svg>
