<svg width="33" height="33" viewBox="0 0 33 33" fill="none" xmlns="http://www.w3.org/2000/svg">
<g clip-path="url(#clip0_3761_4724)">
<path fill-rule="evenodd" clip-rule="evenodd" d="M17.1639 0.101137C17.815 0.120103 18.5041 0.189643 19.092 0.290792C19.5978 0.372976 20.3817 0.543666 20.8305 0.657459C21.2794 0.777574 21.8926 0.967229 22.1897 1.0747C22.4868 1.18217 23.0116 1.40344 23.3593 1.56148C23.707 1.71953 24.2317 1.98505 24.5288 2.15573C24.8259 2.32642 25.0851 2.45918 25.1167 2.4655C25.142 2.4655 25.1483 2.35803 25.1357 2.22528C25.1167 2.09884 25.0851 1.86493 25.0282 1.4224L25.5213 1.34022C25.7932 1.29596 26.3558 1.23907 26.7731 1.2201C27.4621 1.18849 27.5443 1.19482 27.6455 1.30229C27.7087 1.37183 27.7782 1.60573 27.8162 1.86493C27.8541 2.10516 27.9679 3.1293 28.069 4.14079C28.1765 5.15229 28.2587 6.11321 28.2587 6.29022C28.265 6.51148 28.2271 6.63792 28.1512 6.71378C28.0817 6.78332 27.8541 6.84654 27.5317 6.89079C27.2535 6.9224 26.3432 7.02355 25.5087 7.11206C24.6742 7.19424 23.7512 7.28275 23.4541 7.30803C22.942 7.35229 22.9104 7.34596 22.7524 7.20056C22.6133 7.0678 22.5817 6.96033 22.5185 6.39769C22.4742 6.04367 22.4426 5.56321 22.4426 5.32298C22.4363 4.99424 22.4616 4.87413 22.5501 4.79194C22.6133 4.73505 22.8219 4.6655 23.3529 4.58332L22.5374 4.19137C22.0823 3.98275 21.4564 3.71723 21.1466 3.60344C20.8368 3.49596 20.2679 3.32528 19.8823 3.22413C19.4966 3.12298 18.8455 2.99654 18.4282 2.93332C17.9351 2.86378 17.284 2.82585 16.5633 2.82585C15.9564 2.82585 15.2167 2.86378 14.9196 2.90171C14.6225 2.94596 14.0978 3.03447 13.7501 3.10401C13.4024 3.17355 12.7323 3.35688 12.2644 3.50861C11.7966 3.66665 11.0064 3.98907 10.507 4.23562C10.0139 4.47585 9.28685 4.89309 8.90122 5.15861C8.50926 5.42413 7.91501 5.87298 7.58627 6.15746C7.25754 6.44826 6.75179 6.93505 6.46731 7.24482C6.18283 7.55459 5.80984 7.99079 5.63915 8.21838C5.46846 8.44597 5.18398 8.85688 5.00064 9.13505C4.81731 9.41321 4.48857 9.99482 4.27363 10.431C4.05237 10.8672 3.75524 11.5626 3.60352 11.9799C3.45811 12.3971 3.27478 13.023 3.1926 13.3707C3.11041 13.7184 2.99662 14.3442 2.9334 14.7615C2.87018 15.2293 2.82593 15.9247 2.82593 16.5632C2.82593 17.208 2.87018 17.8971 2.9334 18.3649C2.99662 18.7822 3.14202 19.5092 3.26214 19.977C3.38225 20.4448 3.6288 21.2034 3.81214 21.6523C3.99547 22.1011 4.37478 22.8977 4.65926 23.4224C4.95007 23.9408 5.18398 24.4276 5.18398 24.4971C5.18398 24.5667 5.15237 24.6678 5.10811 24.7247C5.06386 24.7816 4.62765 25.0977 4.14087 25.4264C3.65409 25.7552 3.21788 26.046 3.17363 26.0649C3.12306 26.0965 2.97765 25.9195 2.74375 25.5529C2.55409 25.2494 2.13685 24.4908 1.82708 23.8649C1.49834 23.2011 1.15064 22.373 0.986274 21.8736C0.828228 21.4057 0.644895 20.7925 0.575355 20.5144C0.499493 20.2362 0.3857 19.6672 0.316159 19.25C0.246619 18.8327 0.158113 18.0931 0.126504 17.6063C0.0885732 17.1195 0.0759295 16.4115 0.094895 16.0259C0.113861 15.6402 0.164435 15.0586 0.196044 14.7299C0.233975 14.4011 0.316159 13.8322 0.3857 13.4655C0.45524 13.0988 0.600642 12.4919 0.708113 12.1063C0.815585 11.7207 1.05581 11.0126 1.24547 10.5259C1.43512 10.0391 1.75754 9.31206 1.97248 8.91378C2.1811 8.51551 2.56041 7.87068 2.81329 7.49137C3.06616 7.10573 3.47076 6.55573 3.71099 6.25861C3.9449 5.96148 4.4949 5.36723 4.9311 4.93102C5.36731 4.49482 5.96156 3.94482 6.25869 3.70459C6.55581 3.47068 7.13742 3.04711 7.55467 2.77528C7.97191 2.49711 8.64202 2.10516 9.0403 1.90286C9.43857 1.69424 10.1087 1.39711 10.5259 1.23275C10.9432 1.06838 11.6259 0.83447 12.0432 0.720677C12.4604 0.600562 13.1874 0.429873 13.6552 0.341367C14.1231 0.252861 14.8754 0.158034 15.3305 0.126424C15.7857 0.0948152 16.6075 0.0884933 17.1639 0.101137ZM29.9845 7.01723C30.0098 7.01723 30.1868 7.26378 30.3828 7.56723C30.5788 7.877 30.9897 8.63562 31.2995 9.26148C31.6788 10.0264 31.9759 10.7408 32.2035 11.4425C32.3932 12.0178 32.6208 12.8523 32.7029 13.3075C32.7914 13.7563 32.8989 14.4011 32.9368 14.7299C32.9874 15.1155 33.0001 15.8994 32.9811 16.9109C32.9621 18.169 32.9242 18.6494 32.8167 19.25C32.7409 19.6672 32.6081 20.2804 32.5259 20.6092C32.4437 20.9379 32.2541 21.5511 32.115 21.9684C31.9696 22.3856 31.7041 23.0557 31.5208 23.454C31.3437 23.8523 30.9897 24.5224 30.7432 24.9396C30.4966 25.3569 30.0983 25.9575 29.8581 26.2799C29.6242 26.596 29.1437 27.1776 28.796 27.5632C28.4483 27.9552 27.8794 28.5241 27.5317 28.8276C27.184 29.1373 26.7162 29.5293 26.4886 29.7C26.261 29.8707 25.8058 30.1868 25.4771 30.4017C25.1483 30.623 24.6489 30.9201 24.3708 31.0718C24.0926 31.2236 23.5932 31.4701 23.2644 31.6155C22.9357 31.7609 22.3351 31.9885 21.9368 32.1276C21.5386 32.2603 20.938 32.4373 20.6093 32.5259C20.2805 32.608 19.6547 32.7345 19.2185 32.8103C18.4978 32.9368 18.2449 32.9431 16.3104 32.9241C14.2685 32.8988 14.1673 32.8925 13.4024 32.7218C12.9662 32.627 12.2708 32.45 11.8535 32.3236C11.4363 32.2034 10.9116 32.0327 10.684 31.9442C10.4564 31.8557 9.90007 31.6029 9.45122 31.3879C8.99604 31.1667 8.47765 30.9011 7.96559 30.5977L7.99719 30.8948C8.01616 31.0655 8.03513 31.3121 8.06041 31.6977L7.61788 31.7736C7.37133 31.8178 6.83398 31.8747 6.41673 31.9C5.72765 31.9379 5.64547 31.9316 5.51271 31.8241C5.38627 31.723 5.34834 31.6029 5.2788 31.0086C5.22823 30.623 5.12076 29.5925 5.03225 28.7138C4.94375 27.8414 4.86788 26.9879 4.86788 26.8172C4.86156 26.6149 4.89949 26.4822 4.97535 26.4063C5.06386 26.3178 5.40524 26.2609 6.70122 26.1155C7.58627 26.0144 8.69892 25.8942 9.16673 25.85C9.63455 25.8121 10.096 25.7931 10.1909 25.8184C10.292 25.8373 10.4058 25.9195 10.4564 25.9954C10.507 26.0776 10.5765 26.419 10.6144 26.754C10.6524 27.0954 10.684 27.5632 10.684 27.7971C10.6903 28.1322 10.665 28.2523 10.5765 28.3282C10.5133 28.385 10.3173 28.4546 10.1466 28.4736C9.85581 28.5115 9.84317 28.5241 9.95696 28.6C10.0265 28.6506 10.4501 28.8592 10.9052 29.0615C11.3541 29.2701 11.9547 29.5167 12.2328 29.6052C12.511 29.7 13.0357 29.8454 13.4024 29.9339C13.769 30.0224 14.4202 30.1362 14.8564 30.1868C15.2926 30.2373 16.1018 30.2816 16.6581 30.2816C17.3409 30.2816 17.9478 30.2373 18.5231 30.1552C18.9909 30.0856 19.6863 29.9465 20.0719 29.8454C20.4512 29.7379 21.0202 29.5609 21.3363 29.4408C21.646 29.3207 22.1012 29.131 22.3478 29.0172C22.5943 28.9098 23.0874 28.6442 23.4541 28.4356C23.8208 28.227 24.3455 27.8919 24.6236 27.6896C24.9018 27.4873 25.4139 27.0764 25.7616 26.7667C26.1029 26.4569 26.6593 25.8942 26.9817 25.5086C27.3104 25.123 27.7656 24.5287 27.9995 24.181C28.2334 23.8333 28.5685 23.2644 28.7455 22.9167C28.9225 22.569 29.207 21.9431 29.365 21.5259C29.5294 21.1086 29.7443 20.4511 29.8455 20.0718C29.9403 19.6862 30.0667 19.1172 30.1236 18.8075C30.1742 18.4914 30.2501 17.8529 30.2817 17.385C30.3259 16.8161 30.3196 16.2408 30.2754 15.6465C30.2437 15.1598 30.1552 14.4644 30.0857 14.0977C30.0162 13.731 29.8834 13.1747 29.8012 12.8649C29.7127 12.5488 29.4978 11.9419 29.3271 11.5057C29.1564 11.0695 28.8466 10.3994 28.638 10.0201C28.4294 9.63447 28.1828 9.16665 28.088 8.977C27.9426 8.66091 27.9363 8.61033 28.0121 8.45861C28.0627 8.3701 28.4231 8.07298 28.8277 7.80114C29.2259 7.53562 29.6432 7.24482 29.7443 7.16263C29.8455 7.08677 29.9529 7.01723 29.9782 7.01723H29.9845ZM20.6472 12.0621L21.469 12.1C21.9179 12.119 22.3162 12.1695 22.3541 12.2011C22.3962 12.2433 22.3056 12.5868 22.0823 13.2316C21.8989 13.7563 21.2162 15.7161 19.3765 20.9569L18.4788 20.9695C17.796 20.9822 17.5811 20.9695 17.5811 20.9063C17.5811 20.8684 17.9162 19.8759 18.3271 18.7126C18.738 17.5494 19.4334 15.577 19.8633 14.3253L20.6472 12.0621ZM8.12995 13.2885C8.2311 13.2885 8.51559 13.3138 8.76214 13.3454C9.00237 13.3833 9.37536 13.4908 9.58398 13.5856C9.7926 13.6868 10.0581 13.8511 10.1719 13.9523C10.292 14.0534 10.469 14.3063 10.5765 14.5149C10.7472 14.8563 10.7598 14.9385 10.7409 15.4316C10.7219 15.8804 10.6903 16.0385 10.5196 16.3799C10.3679 16.696 10.1529 16.9552 8.79375 18.308L9.02765 18.3523C9.16041 18.3713 9.64087 18.3965 10.9432 18.4029V20.1098H5.69604L5.68972 18.7506L6.21444 18.2764C6.49892 18.0109 7.14375 17.404 7.64317 16.9172C8.28168 16.285 8.56616 15.969 8.61041 15.8109C8.64834 15.6845 8.66099 15.5011 8.64202 15.4C8.62306 15.2799 8.54087 15.1724 8.43972 15.1155C8.3449 15.0586 8.11731 15.0207 7.93398 15.0207C7.63685 15.0207 7.56731 15.046 6.80237 15.6339L6.42306 15.4253C6.21444 15.3115 5.89202 15.1218 5.70869 15.008C5.52536 14.8942 5.37995 14.7615 5.37995 14.7172C5.37363 14.673 5.49375 14.5023 5.64547 14.3316C5.79719 14.1609 6.0311 13.9396 6.17018 13.8448C6.30926 13.75 6.5811 13.6109 6.77076 13.535C6.96041 13.4592 7.30179 13.3707 7.52938 13.3454C7.75696 13.3201 8.02248 13.2948 8.12995 13.2885ZM14.2621 13.4086H15.2863C15.9121 13.4086 16.3294 13.4339 16.3483 13.4718C16.3673 13.5034 16.0323 14.0408 15.6024 14.654C15.1725 15.2736 14.6035 16.0954 13.8512 17.2017H14.7995V16.0638H16.7593V17.2017H17.8024L17.7518 17.7833C17.7265 18.1057 17.7075 18.4787 17.7075 18.8454H17.3282C17.1196 18.8454 16.9047 18.858 16.8541 18.877C16.7782 18.9023 16.7593 19.0287 16.7593 20.1098H14.7363V18.9086H11.3225V17.5178L14.2621 13.4086ZM22.1139 13.4023H27.7593V14.7299L25.4518 20.1098H24.3897C23.6058 20.1034 23.3277 20.0845 23.3024 20.0276C23.2834 19.9833 23.6564 19.054 24.1242 17.954C24.5983 16.8603 25.0725 15.773 25.357 15.1092H23.9662V16.1207L23.119 16.108C22.6512 16.0954 22.2529 16.0764 22.234 16.0575C22.215 16.0448 22.1834 15.4379 22.1581 14.7172L22.1139 13.4023Z" fill="#00A6CA"/>
</g>
<defs>
<clipPath id="clip0_3761_4724">
<rect width="33" height="32.9368" fill="white"/>
</clipPath>
</defs>
</svg>
