<svg width="38" height="37" viewBox="0 0 38 37" fill="none" xmlns="http://www.w3.org/2000/svg">
<circle cx="16" cy="16" r="16" fill="#00A6CA" fill-opacity="0.1"/>
<path fill-rule="evenodd" clip-rule="evenodd" d="M23.2805 23.1233C26.8659 23.1111 27.8293 23.1477 28.0976 23.2818C28.2805 23.3672 28.5 23.5745 28.5854 23.733C28.6951 23.9282 28.7317 24.355 28.7073 24.977C28.6951 25.4891 28.6829 25.916 28.7073 25.916C28.7195 25.916 29.622 25.5135 32.6951 24.1477H33.9146C34.9634 24.1477 35.2195 24.1843 35.7439 24.4526C36.0854 24.6111 36.6098 25.0013 36.9146 25.3062C37.2561 25.6477 37.561 26.1233 37.7317 26.5623C37.9268 27.0623 38 27.5135 38 28.1721C38 28.8184 37.9268 29.294 37.7317 29.794C37.5488 30.2574 37.2683 30.6843 36.8415 31.0989C36.2683 31.6599 35.8171 31.8916 25.0732 36.6477H21.5976C18.1585 36.6477 18.1098 36.6477 17.3049 36.3306C16.8537 36.1599 16.1463 35.7818 15.0122 34.9648L14.8049 35.2574C14.6829 35.416 14.3049 35.6965 13.9512 35.8794C13.3537 36.1965 13.2073 36.2208 11.7805 36.2087C10.6707 36.2087 10.1463 36.1477 9.82927 36.0135C9.59756 35.9038 9.21951 35.6599 8.9878 35.4769C8.76829 35.2818 8.45122 34.8672 8.29268 34.5501C8.0122 33.9891 8 33.855 8 28.8428H10.6829L10.7439 33.416H12.8171V26.4648L8 26.4038L8.06098 26.0135C8.09756 25.794 8.28049 25.3672 8.46342 25.0745C8.65854 24.7452 9.03659 24.3672 9.39024 24.1599C9.97561 23.794 10.0488 23.7818 11.6463 23.7452C13.2195 23.7087 13.3415 23.733 13.9512 24.0257C14.3049 24.1965 14.6829 24.4648 15.0122 24.916L15.5 24.5501C15.7683 24.355 16.3049 24.0257 16.6951 23.8306C17.0732 23.6355 17.7073 23.4038 18.0976 23.3062C18.6341 23.1721 19.8537 23.1233 23.2805 23.1233ZM17.2683 26.794C17.0366 26.9648 16.6951 27.3184 16.5122 27.5745C16.3293 27.8428 16.0854 28.2696 15.9756 28.5379C15.8415 28.855 15.7561 29.3428 15.7561 29.9404C15.7561 30.6355 15.8293 31.0013 16.0366 31.4648C16.1829 31.8062 16.4878 32.294 16.7073 32.5623C16.9268 32.8306 17.4634 33.2452 17.8902 33.4769L18.6707 33.9038L24.1585 33.9648C32.2805 30.355 34.6707 29.2209 34.8659 29.0379C35.1341 28.7818 35.1951 28.6111 35.1951 28.1721C35.1951 27.7209 35.1341 27.5501 34.8293 27.2574C34.561 26.9891 34.3537 26.8916 34.0366 26.8916C33.752 26.8916 32.0366 27.5786 28.8902 28.9526C26.2927 30.0867 23.939 31.0745 23.6707 31.1477C23.4024 31.233 22.5732 31.3306 21.8171 31.3794L20.439 31.4648V28.6599C22.4634 28.5257 23 28.4282 23.4268 28.2452C23.7683 28.0867 24.2317 27.8184 24.4634 27.6355C24.6951 27.4404 25.0732 27.0257 25.2805 26.6965C25.5 26.3672 25.6829 26.0623 25.6829 26.0135C25.6829 25.9526 24.1951 25.916 22.3659 25.916C19.1951 25.916 19.0122 25.9404 18.3659 26.1965C18 26.3428 17.5 26.6111 17.2683 26.794Z" fill="#00A6CA"/>
<path d="M21.1593 15.1988C21.8742 15.8871 23.2393 17.2832 24.4534 18.5512C25.0595 19.1842 25.6254 19.7826 26.051 20.2417C26.239 20.4445 26.3983 20.6188 26.521 20.7561H25.4438H24.0168L23.0732 19.7732L22.7125 20.1195L23.0732 19.7732C21.3909 18.0208 19.3064 15.9158 18.0799 14.7311L17.1269 13.8106L17.1261 13.0979L17.1261 13.0979C17.126 13.0368 17.1258 12.9805 17.1257 12.9284C17.1249 12.6995 17.1244 12.553 17.1351 12.4417C17.1352 12.4406 17.1353 12.4395 17.1354 12.4385C17.156 12.4359 17.1816 12.4333 17.2131 12.431C17.3552 12.421 17.541 12.4213 17.8101 12.4218C17.8702 12.4219 17.9344 12.422 18.0031 12.422C19.9352 12.422 21.196 12.212 22.1658 11.629C22.6983 11.3089 23.2195 10.7688 23.4249 10.2509L23.5086 10.0397L23.7801 9.35536H23.0439H19.9778C18.6023 9.35536 17.8427 9.35229 17.4102 9.33693C17.2881 9.33259 17.1991 9.32745 17.1342 9.32206C17.128 9.22114 17.125 9.06512 17.125 8.81531C17.125 8.62418 17.1257 8.48544 17.129 8.38043C17.1296 8.36084 17.1303 8.34317 17.1311 8.32725C17.2069 8.31983 17.3166 8.31298 17.4771 8.30743C17.9075 8.29253 18.6349 8.28876 19.8979 8.28876C21.3397 8.28876 22.0885 8.28868 22.462 8.27053C22.5568 8.26592 22.6404 8.25963 22.7108 8.24978C22.7657 8.2421 22.8738 8.22526 22.9765 8.16946C23.0349 8.13772 23.1224 8.07711 23.1865 7.96854C23.256 7.85075 23.2678 7.72836 23.2551 7.63112C23.2439 7.54596 23.2146 7.48218 23.2006 7.45379C23.1865 7.42514 23.1713 7.40038 23.1662 7.39197L23.1655 7.39076L23.1654 7.39062C23.0428 7.18942 22.8296 6.99083 22.6308 6.83546C22.4221 6.67236 22.1731 6.51346 21.9358 6.40771L21.9357 6.40769C21.0864 6.02945 20.5528 5.96856 18.6727 5.93145C17.9492 5.91717 17.5161 5.90374 17.2511 5.88401C17.2065 5.88069 17.1687 5.87732 17.1368 5.87401C17.1283 5.74458 17.125 5.53926 17.125 5.19973C17.125 4.88265 17.1288 4.67753 17.1374 4.54149C17.2863 4.53186 17.5126 4.52391 17.8575 4.51784C18.7037 4.50295 20.208 4.5 22.8965 4.5H28.6367C28.6399 4.51842 28.6431 4.53912 28.6463 4.56213C28.6644 4.69528 28.6747 4.86765 28.6749 5.04514C28.6751 5.22314 28.6651 5.38981 28.6478 5.51227C28.6473 5.51565 28.6469 5.51896 28.6464 5.5222C28.6086 5.5286 28.5559 5.53542 28.4834 5.54118C28.2091 5.56297 27.7569 5.56453 26.9584 5.55315C26.5536 5.54739 26.1851 5.54314 25.9174 5.54094C25.7838 5.53984 25.6743 5.53925 25.5976 5.53924C25.5597 5.53924 25.5277 5.53938 25.5041 5.53974C25.4932 5.53991 25.4796 5.54018 25.4669 5.54075C25.4621 5.54096 25.4482 5.54159 25.4318 5.54331L25.4314 5.54335C25.4255 5.54396 25.4021 5.5464 25.3732 5.55283L25.373 5.55289C25.3621 5.55532 25.3207 5.56456 25.2719 5.58712C25.2489 5.59775 25.194 5.62483 25.138 5.67788C25.0811 5.73172 24.9787 5.85714 24.9818 6.04904L21.1593 15.1988ZM17.1577 4.37013C17.1577 4.37016 17.1575 4.37083 17.1571 4.37208L17.1577 4.37013ZM22.5877 7.25672C22.5879 7.25678 22.5857 7.2573 22.5808 7.25813C22.5851 7.25708 22.5876 7.25666 22.5877 7.25672ZM16.9917 5.85161C16.9917 5.85159 16.9928 5.85189 16.9948 5.85257C16.9926 5.85197 16.9916 5.85163 16.9917 5.85161Z" fill="#00A6CA" stroke="#00A6CA"/>
</svg>
