<svg width="30" height="33" viewBox="0 0 30 33" fill="none" xmlns="http://www.w3.org/2000/svg">
<g clip-path="url(#clip0_3761_4737)">
<path fill-rule="evenodd" clip-rule="evenodd" d="M20.9296 0L20.9952 0.084375C21.0309 0.13125 21.0684 0.186562 21.0787 0.209062C21.088 0.230625 21.104 0.280312 21.1134 0.31875C21.1237 0.357187 21.1377 0.435937 21.1452 0.492187C21.1527 0.548437 21.163 0.654375 21.1687 0.726562C21.1734 0.79875 21.178 0.94125 21.178 1.04344C21.178 1.14469 21.1734 1.29281 21.1677 1.37156C21.1621 1.44937 21.1499 1.56281 21.1396 1.62187C21.1293 1.68094 21.1124 1.75687 21.1012 1.79062C21.089 1.82719 21.0674 1.86562 21.0477 1.88812C21.029 1.90781 20.9849 1.93781 20.9484 1.95469C20.9127 1.97156 20.8527 1.99312 20.8171 2.00156C20.7815 2.01 20.7074 2.02312 20.653 2.03062C20.5987 2.03719 20.4599 2.0475 20.3437 2.05406C20.1946 2.06156 19.9002 2.06344 19.3452 2.05875C18.9121 2.05594 18.3187 2.05031 18.0252 2.04562C17.7327 2.04187 17.4937 2.04187 17.4937 2.04656C17.4937 2.05031 17.563 2.15531 17.6465 2.28094C17.7309 2.40562 17.8227 2.54625 17.8499 2.59219C17.8771 2.63812 17.9296 2.73562 17.968 2.80781C18.0055 2.88 18.0637 3 18.0965 3.075C18.1302 3.15 18.2052 3.34125 18.3702 3.78844L19.3902 3.7875C20.0109 3.7875 20.4655 3.79125 20.5527 3.79781C20.6305 3.8025 20.7374 3.81562 20.789 3.82594C20.8405 3.83625 20.908 3.85594 20.939 3.87C20.9699 3.885 21.014 3.91312 21.0374 3.93469C21.0627 3.95719 21.0899 3.99469 21.1049 4.0275C21.119 4.05844 21.1377 4.11656 21.1471 4.15781C21.1621 4.22437 21.164 4.29562 21.164 4.82344C21.164 5.35969 21.1621 5.42156 21.1471 5.49375C21.1377 5.53781 21.1218 5.59219 21.1115 5.61562C21.1012 5.63906 21.0777 5.67562 21.0599 5.69812C21.0393 5.72344 21.0055 5.74875 20.9652 5.76844C20.9296 5.78625 20.8696 5.80687 20.8312 5.81531C20.7927 5.82469 20.7252 5.83594 20.6812 5.84156C20.6268 5.84906 20.2509 5.85375 19.4934 5.85562C18.883 5.8575 18.3843 5.86125 18.3843 5.86406C18.3843 5.86687 18.3487 5.99812 18.3055 6.1575C18.2615 6.31594 18.2024 6.51469 18.1724 6.6C18.1434 6.68531 18.1012 6.79687 18.0796 6.84844C18.0571 6.9 18.0187 6.98625 17.9934 7.04062C17.968 7.095 17.9165 7.19437 17.879 7.26094C17.8415 7.3275 17.7702 7.44375 17.7215 7.51875C17.6718 7.59375 17.593 7.70531 17.5462 7.76625C17.4993 7.82812 17.4159 7.92937 17.3615 7.99125C17.3071 8.05406 17.1993 8.16656 17.1224 8.2425C17.0455 8.31844 16.9302 8.42531 16.8655 8.48062C16.8009 8.535 16.694 8.62125 16.6265 8.67187C16.559 8.72156 16.4577 8.79469 16.4015 8.83406C16.3452 8.8725 16.2412 8.93906 16.1718 8.98125C16.1024 9.02437 15.9909 9.09 15.9234 9.12656C15.8559 9.16406 15.7405 9.225 15.6655 9.2625C15.5905 9.3 15.4705 9.35719 15.3984 9.38906C15.3262 9.42094 15.1949 9.47437 15.1077 9.50812C15.0205 9.54187 14.879 9.5925 14.7937 9.62156C14.7084 9.65062 14.5696 9.69469 14.4843 9.72094C14.399 9.74719 14.2452 9.79125 14.1421 9.81844C14.039 9.84656 13.8702 9.88875 13.7671 9.91219C13.664 9.93656 13.5102 9.96844 13.4249 9.98344C13.3396 9.99844 13.1962 10.0228 13.1062 10.0359C13.0162 10.0491 12.9084 10.0687 12.8671 10.0791C12.8259 10.0894 12.7902 10.0997 12.7874 10.1016C12.7846 10.1044 12.7977 10.1241 12.8165 10.1456C12.8352 10.1681 13.0546 10.3856 13.304 10.6303C13.5534 10.875 13.9902 11.3081 14.2734 11.5922C14.5574 11.8762 15.0252 12.3506 15.314 12.6469C15.6037 12.9431 15.9637 13.3144 16.1155 13.4719C16.2674 13.6294 16.5402 13.9116 16.7202 14.1C16.9012 14.2884 17.1702 14.5706 17.3202 14.7281C17.4702 14.8856 17.6934 15.1219 17.8171 15.2531C17.9418 15.3844 18.1565 15.6141 18.2962 15.7641C18.4349 15.9141 18.6187 16.1119 18.703 16.2047C18.7884 16.2984 18.9055 16.4287 18.9646 16.4953C19.0237 16.5628 19.0968 16.6491 19.1277 16.6875C19.1587 16.7259 19.1962 16.7831 19.2112 16.8141C19.2299 16.8534 19.2374 16.8853 19.2374 16.92C19.2374 16.9462 19.229 16.9884 19.2196 17.0137C19.2093 17.0381 19.1765 17.1019 19.0893 17.2547L15.8015 17.2603L15.0562 16.4841C14.6465 16.0575 14.1693 15.5634 13.9968 15.3853C13.8243 15.2062 13.5965 14.9719 13.4905 14.8641C13.3846 14.7562 12.9562 14.3194 12.538 13.8937C12.119 13.4681 11.4215 12.7659 10.9865 12.3328C10.5515 11.8997 9.88305 11.2434 9.50148 10.875C9.11992 10.5066 8.76648 10.1653 8.62492 10.0266V9.24844C8.62492 8.79844 8.62867 8.43469 8.6343 8.38594C8.63992 8.33906 8.64836 8.28094 8.65398 8.25469C8.65961 8.22937 8.67648 8.1825 8.69055 8.15156C8.70648 8.11687 8.73461 8.07937 8.76273 8.05406C8.78711 8.03062 8.8293 8.0025 8.85461 7.99125C8.88086 7.98 8.93055 7.96406 8.96711 7.95656C9.00367 7.94812 9.07961 7.93687 9.13586 7.93125C9.19211 7.92656 9.41805 7.92187 9.63742 7.92187C9.8568 7.92187 10.2168 7.91719 10.439 7.9125C10.6612 7.90781 10.9218 7.89937 11.0202 7.89375C11.1187 7.88906 11.2809 7.87781 11.3812 7.86937C11.4815 7.86187 11.6418 7.84687 11.7374 7.83656C11.833 7.82625 11.983 7.8075 12.0702 7.79437C12.1574 7.78125 12.3055 7.75594 12.3984 7.73906C12.4912 7.72125 12.6449 7.6875 12.7405 7.66406C12.8362 7.63969 13.0002 7.59187 13.1062 7.55625C13.2121 7.52156 13.3584 7.46719 13.4324 7.43531C13.5055 7.40344 13.6068 7.3575 13.6574 7.33219C13.7071 7.30687 13.7905 7.26281 13.8421 7.23281C13.8937 7.20281 13.9827 7.1475 14.039 7.10812C14.0952 7.06969 14.1824 7.00594 14.2312 6.96656C14.2799 6.92812 14.384 6.8325 14.4618 6.75469C14.5396 6.67781 14.6371 6.57187 14.6774 6.52031C14.7187 6.46875 14.7749 6.39094 14.804 6.34687C14.8321 6.30281 14.8696 6.24187 14.8874 6.21094C14.9043 6.18 14.9446 6.08906 15.0355 5.86406L12.3299 5.85844C10.5749 5.85469 9.54461 5.84906 9.39836 5.8425C9.27461 5.83594 9.12273 5.82656 9.06086 5.82094C8.99898 5.81531 8.91648 5.80219 8.87805 5.79281C8.83961 5.7825 8.7918 5.76281 8.77117 5.74875C8.75148 5.73469 8.72336 5.70656 8.7093 5.68594C8.69523 5.66531 8.67742 5.62781 8.66898 5.60156C8.66055 5.57625 8.64836 5.52094 8.6418 5.47969C8.63242 5.42531 8.62961 5.24156 8.62961 4.8C8.62961 4.33687 8.63242 4.18031 8.6418 4.12969C8.6493 4.09312 8.66336 4.04344 8.67461 4.01812C8.6868 3.99094 8.71305 3.95625 8.73742 3.93562C8.76086 3.915 8.79648 3.89062 8.81711 3.88125C8.83773 3.87094 8.88367 3.85687 8.92023 3.84937C8.9568 3.84187 9.03273 3.83062 9.08898 3.825C9.14523 3.81937 9.27836 3.81094 9.3843 3.80531C9.49305 3.79969 10.5721 3.79219 11.878 3.7875C13.2702 3.78281 14.2593 3.77531 14.3812 3.76969C14.4918 3.76406 14.6099 3.75469 14.6437 3.74906C14.6774 3.74344 14.7149 3.73406 14.728 3.72844C14.7412 3.72187 14.7524 3.71062 14.7543 3.70312C14.7562 3.69562 14.7393 3.66187 14.7168 3.62812C14.6943 3.59437 14.639 3.52781 14.5921 3.47906C14.5452 3.43125 14.4702 3.35906 14.4234 3.31875C14.3765 3.27937 14.294 3.21375 14.2387 3.1725C14.1834 3.13219 14.0952 3.07125 14.0418 3.03844C13.9884 3.00469 13.8984 2.95406 13.8421 2.92406C13.7859 2.89406 13.6734 2.8425 13.5937 2.80969C13.514 2.77687 13.394 2.73 13.3265 2.7075C13.259 2.68406 13.1455 2.64937 13.0734 2.63156C13.0012 2.61281 12.898 2.58937 12.8437 2.57812C12.7893 2.56781 12.6693 2.54906 12.5765 2.53594C12.4837 2.52375 12.3299 2.50687 12.2343 2.49937C12.1387 2.49094 11.983 2.48062 11.8874 2.475C11.7918 2.47031 11.5977 2.46187 11.4562 2.45625C11.3146 2.45156 10.994 2.44312 10.7437 2.4375C10.4934 2.43281 10.1371 2.42344 9.95148 2.41875C9.76586 2.41312 9.5343 2.40469 9.43586 2.4C9.33742 2.39437 9.20711 2.38594 9.14523 2.38031C9.08336 2.37562 8.99711 2.36531 8.95305 2.35781C8.90898 2.35031 8.85273 2.33719 8.82648 2.32781C8.79742 2.31844 8.76367 2.29594 8.73649 2.26969C8.70367 2.23687 8.68867 2.21156 8.67461 2.16562C8.66336 2.13187 8.6493 2.0625 8.64274 2.01094C8.63242 1.93875 8.62961 1.75312 8.62961 1.19531C8.63055 0.578437 8.63242 0.458437 8.64555 0.370312C8.65398 0.314062 8.66805 0.246562 8.67648 0.220312C8.68492 0.195 8.70367 0.1575 8.7168 0.137812C8.73086 0.118125 8.75523 0.0965625 8.77023 0.0890625C8.78523 0.0815625 8.83586 0.069375 8.88273 0.061875C8.92961 0.054375 9.03086 0.043125 9.10773 0.0384375C9.18555 0.0328125 9.43586 0.024375 9.66555 0.01875C9.89523 0.013125 10.2027 0.0075 10.3499 0.0065625C10.4971 0.005625 12.9374 0.00375 20.9296 0ZM16.3546 19.1212C17.4065 19.1222 18.4209 19.1287 18.6093 19.1334C18.7977 19.1391 19.0509 19.1475 19.1718 19.1531C19.2927 19.1587 19.4662 19.17 19.5562 19.1775C19.6462 19.185 19.7643 19.1981 19.8187 19.2056C19.873 19.2141 19.949 19.2291 19.9874 19.2384C20.0259 19.2487 20.0934 19.2759 20.1374 19.2994C20.1815 19.3228 20.2509 19.3687 20.2921 19.4006C20.3334 19.4334 20.4009 19.4953 20.4421 19.5384C20.4834 19.5825 20.534 19.6434 20.5537 19.6734C20.5743 19.7044 20.6005 19.7522 20.6127 19.7794C20.6249 19.8056 20.6427 19.8628 20.654 19.9059C20.6643 19.9481 20.6793 20.0231 20.6868 20.0719C20.6934 20.1206 20.7046 20.2472 20.7112 20.3531C20.7196 20.5031 20.7196 20.6475 20.7112 21.0141C20.7046 21.2719 20.6999 21.5766 20.6999 21.6919C20.6999 21.8062 20.7027 21.9019 20.7074 21.9037C20.7112 21.9056 20.7355 21.8991 20.7609 21.8878C20.7871 21.8775 21.6815 21.4809 24.689 20.145L25.6827 20.1497C26.324 20.1525 26.713 20.1572 26.7796 20.1647C26.8368 20.1703 26.9287 20.1816 26.9859 20.19C27.043 20.1975 27.1434 20.2181 27.2109 20.235C27.2784 20.2519 27.3834 20.2866 27.4452 20.3109C27.5071 20.3353 27.6299 20.3916 27.7171 20.4347C27.8043 20.4787 27.9065 20.5322 27.9421 20.5528C27.9777 20.5734 28.0602 20.625 28.1249 20.6672C28.1896 20.7094 28.3012 20.7881 28.3734 20.8425C28.4455 20.8959 28.5505 20.9784 28.6077 21.0253C28.6649 21.0712 28.7615 21.1556 28.8234 21.2128C28.8852 21.2691 28.978 21.3637 29.0305 21.4228C29.083 21.4819 29.158 21.5719 29.1984 21.6234C29.2387 21.675 29.3146 21.7828 29.368 21.8625C29.4205 21.9422 29.4946 22.0622 29.5321 22.1297C29.5687 22.1972 29.6184 22.2919 29.6409 22.3406C29.6643 22.3894 29.7027 22.4803 29.728 22.5422C29.7524 22.6041 29.7918 22.7137 29.8152 22.7859C29.8387 22.8581 29.8668 22.9528 29.878 22.9969C29.8893 23.0409 29.909 23.1272 29.9212 23.1891C29.9343 23.2509 29.9521 23.3653 29.9624 23.4422C29.9718 23.52 29.9849 23.655 29.9915 23.7422C29.998 23.8453 30.0009 24.0319 29.9971 24.2719C29.9943 24.4753 29.9877 24.6862 29.9821 24.7406C29.9765 24.795 29.9652 24.885 29.9568 24.9422C29.9493 24.9994 29.9343 25.0894 29.924 25.1437C29.9137 25.1981 29.8921 25.2928 29.8762 25.3547C29.8612 25.4166 29.8293 25.5262 29.8059 25.5984C29.7824 25.6706 29.7421 25.7803 29.7168 25.8422C29.6905 25.9041 29.6371 26.0203 29.5968 26.1C29.5565 26.1797 29.488 26.2997 29.4459 26.3672C29.4037 26.4347 29.3399 26.5294 29.3034 26.5781C29.2677 26.6269 29.2012 26.7112 29.158 26.7656C29.114 26.82 28.9912 26.9512 28.8852 27.0572C28.7502 27.1922 28.6565 27.2766 28.573 27.3384C28.5084 27.3872 28.3921 27.465 28.3152 27.5119C28.2393 27.5587 28.0902 27.645 27.9843 27.7022C27.8784 27.7594 27.6402 27.8822 27.4546 27.9741C27.269 28.0669 26.9943 28.2 26.8452 28.2703C26.6962 28.3416 26.4234 28.4691 26.2405 28.5534C26.0577 28.6387 25.7137 28.7972 25.4765 28.905C25.2393 29.0137 24.7902 29.2172 24.478 29.3578C24.1659 29.4984 23.6071 29.7497 23.2359 29.9156C22.8646 30.0816 21.9702 30.48 21.2484 30.8016C20.5265 31.1222 19.2909 31.6706 17.0671 32.655L14.114 32.6503C12.2324 32.6475 11.069 32.6419 10.9077 32.6353C10.769 32.6297 10.589 32.6212 10.5093 32.6156C10.4296 32.61 10.2946 32.5969 10.2093 32.5866C10.124 32.5762 10.0059 32.5575 9.9468 32.5453C9.88773 32.5322 9.78836 32.5069 9.72648 32.4881C9.66461 32.4694 9.52305 32.4197 9.41242 32.3766C9.3018 32.3344 9.15555 32.2753 9.08898 32.2453C9.02242 32.2153 8.92023 32.1684 8.86398 32.1394C8.80773 32.1112 8.69523 32.0522 8.61555 32.0081C8.53586 31.9641 8.39242 31.8825 8.2968 31.8253C8.20117 31.7681 8.0343 31.665 7.92648 31.5956C7.81867 31.5262 7.63023 31.4016 7.5093 31.3191C7.38836 31.2356 7.22992 31.1259 7.15773 31.0753C7.08555 31.0237 7.0218 30.9806 7.01711 30.9787C7.01242 30.9769 6.96367 31.0397 6.9093 31.1175C6.85492 31.1953 6.78742 31.2844 6.7593 31.3153C6.73117 31.3462 6.66086 31.41 6.60461 31.4559C6.54836 31.5019 6.46117 31.5684 6.41242 31.6031C6.36367 31.6378 6.28773 31.6884 6.24367 31.7156C6.19961 31.7437 6.12836 31.7869 6.0843 31.8122C6.04023 31.8375 5.92211 31.8994 5.8218 31.95C5.72148 32.0006 5.5968 32.0578 5.54523 32.0766C5.49367 32.0962 5.41117 32.1216 5.36242 32.1337C5.31367 32.1469 5.21617 32.1647 5.1468 32.175C5.07742 32.1853 4.94242 32.1975 4.8468 32.2031C4.75117 32.2078 4.3818 32.2125 4.02648 32.2125C3.67117 32.2125 3.26336 32.2078 3.1218 32.2031C2.98023 32.1975 2.80117 32.1891 2.72336 32.1834C2.64648 32.1787 2.52742 32.1675 2.46086 32.16C2.3943 32.1525 2.29023 32.1384 2.23117 32.1272C2.17211 32.1169 2.08117 32.0981 2.02961 32.0841C1.97805 32.0709 1.90398 32.0475 1.86555 32.0325C1.82711 32.0166 1.7493 31.9791 1.69211 31.9472C1.63492 31.9162 1.5318 31.8553 1.46242 31.8112C1.39305 31.7681 1.27867 31.6931 1.2093 31.6444C1.13992 31.5966 1.04805 31.5291 1.00586 31.4953C0.962734 31.4616 0.883984 31.3847 0.829609 31.3247C0.775234 31.2637 0.695547 31.1681 0.651484 31.1109C0.606484 31.0537 0.523984 30.9384 0.467734 30.8531C0.403047 30.7575 0.331797 30.6328 0.277422 30.525C0.230547 30.4294 0.178047 30.3094 0.162109 30.2578C0.145234 30.2062 0.125547 30.1369 0.118047 30.1031C0.110547 30.0694 0.0983594 30 0.0899219 29.9484C0.0814844 29.8969 0.0692969 29.7872 0.0617969 29.7047C0.0533594 29.6222 0.0430469 29.4722 0.0374219 29.3719C0.0317969 29.2716 0.0233594 29.0559 0.0177344 28.8937C0.0121094 28.7297 0.00648438 27.7603 -7.81249e-05 24.8344H1.34055C2.40461 24.8344 2.68211 24.8372 2.68492 24.8466C2.6868 24.8522 2.69992 25.7287 2.71305 26.7937C2.72711 27.8587 2.74117 28.8825 2.75148 29.4094H4.8093V22.4719L4.68555 22.4672C4.61711 22.4653 3.64305 22.4522 2.5218 22.4391C1.40055 22.4269 0.373984 22.4128 -0.00195312 22.4016L0.00460938 22.35C0.00835938 22.3219 0.0252344 22.2141 0.0421094 22.1109C0.0617969 21.99 0.0852344 21.8869 0.107734 21.8203C0.126484 21.7631 0.166797 21.6581 0.197734 21.5859C0.227734 21.5137 0.281172 21.3975 0.316797 21.3281C0.352422 21.2587 0.412422 21.1509 0.449922 21.0891C0.487422 21.0272 0.541797 20.9447 0.569922 20.9062C0.598047 20.8678 0.654297 20.7975 0.693672 20.7516C0.733984 20.7056 0.824922 20.61 0.896172 20.5406C0.968359 20.4703 1.0668 20.3822 1.11555 20.3447C1.1643 20.3062 1.24023 20.2519 1.2843 20.2219C1.32836 20.1928 1.42961 20.1291 1.5093 20.0812C1.58898 20.0325 1.6968 19.9734 1.74836 19.9491C1.79992 19.9256 1.87586 19.8947 1.91711 19.8806C1.95836 19.8675 2.03055 19.8478 2.07648 19.8384C2.12242 19.8281 2.20961 19.8131 2.26867 19.8056C2.32773 19.7972 2.43555 19.7869 2.50773 19.7812C2.57992 19.7766 2.7468 19.7681 2.87805 19.7625C3.0093 19.7578 3.30742 19.7484 3.53898 19.7428C3.77148 19.7372 4.16805 19.7316 4.42023 19.7316C4.71742 19.7306 4.92555 19.7344 5.01086 19.7419C5.08305 19.7484 5.18242 19.7606 5.23117 19.7681C5.27992 19.7756 5.36242 19.7925 5.41398 19.8066C5.46555 19.8197 5.55461 19.8487 5.61086 19.8703C5.66711 19.8919 5.77961 19.9406 5.8593 19.9772C5.93898 20.0147 6.0468 20.0681 6.09836 20.0972C6.14992 20.1253 6.23898 20.1797 6.29523 20.2181C6.35148 20.2556 6.44523 20.3231 6.50148 20.3691C6.55773 20.4141 6.65523 20.5022 6.71711 20.5641C6.77898 20.6269 6.8718 20.7291 6.92336 20.7919C6.98148 20.8631 7.02086 20.9034 7.02648 20.8978C7.03117 20.8941 7.14742 20.8069 7.2843 20.7047C7.42117 20.6016 7.61711 20.4628 7.72023 20.3953C7.82336 20.3269 7.99211 20.2209 8.09523 20.1591C8.19836 20.0972 8.34461 20.0119 8.42148 19.9706C8.49742 19.9284 8.62773 19.8591 8.71211 19.8178C8.79555 19.7756 8.93523 19.7109 9.02336 19.6734C9.11148 19.6359 9.25211 19.5787 9.33742 19.5469C9.42273 19.515 9.57836 19.4597 9.6843 19.425C9.79023 19.3894 9.93086 19.3462 9.99836 19.3275C10.0659 19.3097 10.1624 19.2862 10.214 19.2759C10.2655 19.2656 10.3771 19.2487 10.4624 19.2384C10.5477 19.2281 10.6949 19.2131 10.7905 19.2047C10.8862 19.1972 11.0399 19.1869 11.1327 19.1812C11.2255 19.1766 11.4093 19.1681 11.5405 19.1625C11.6718 19.1578 11.9718 19.1484 12.2062 19.1428C12.4405 19.1372 13.0396 19.1287 13.5374 19.125C14.0352 19.1212 15.3027 19.1194 16.3546 19.1212ZM11.7468 21.9459C11.6155 21.9525 11.4337 21.9637 11.3437 21.9712C11.2537 21.9787 11.1252 21.9937 11.0577 22.0031C10.9902 22.0134 10.8852 22.0341 10.8234 22.05C10.7615 22.065 10.6621 22.0941 10.603 22.1137C10.544 22.1344 10.4446 22.1709 10.3827 22.1953C10.3209 22.2197 10.2027 22.2712 10.1202 22.3097C10.0377 22.3472 9.90273 22.4147 9.82023 22.4587C9.73773 22.5028 9.6093 22.5759 9.53523 22.62C9.46211 22.665 9.34961 22.74 9.2868 22.7869C9.22492 22.8337 9.12273 22.9191 9.06086 22.9753C8.99898 23.0316 8.89867 23.13 8.83867 23.1947C8.77867 23.2584 8.69055 23.3569 8.64367 23.4141C8.5968 23.4712 8.5293 23.5594 8.49461 23.6109C8.45898 23.6625 8.38586 23.7787 8.33148 23.8687C8.27805 23.9587 8.19742 24.1003 8.15242 24.1828C8.10836 24.2653 8.0493 24.3834 8.02117 24.4453C7.99305 24.5072 7.95742 24.5962 7.94055 24.6422C7.92461 24.6881 7.89648 24.7809 7.87961 24.8484C7.86273 24.9159 7.83742 25.0359 7.8243 25.1156C7.81117 25.1953 7.79336 25.3219 7.78492 25.3969C7.77649 25.4775 7.76805 25.6603 7.76523 25.8469C7.76242 26.0428 7.7643 26.2266 7.77086 26.3344C7.77742 26.43 7.78867 26.5566 7.79617 26.6156C7.80367 26.6747 7.81961 26.7722 7.8318 26.8312C7.84399 26.8903 7.8693 26.9916 7.88898 27.0562C7.90773 27.1209 7.94617 27.2325 7.9743 27.3047C8.00336 27.3769 8.06617 27.5166 8.11398 27.6141C8.16273 27.7116 8.24336 27.8616 8.29398 27.9469C8.34461 28.0322 8.42617 28.1606 8.47399 28.2328C8.52274 28.305 8.60055 28.4147 8.64742 28.4766C8.6943 28.5384 8.78336 28.6397 8.84523 28.7016C8.90805 28.7634 9.01398 28.8591 9.08055 28.9134C9.14711 28.9678 9.24555 29.0466 9.29992 29.0869C9.3543 29.1272 9.45555 29.1994 9.52492 29.2462C9.5943 29.2931 9.69367 29.3569 9.74523 29.3878C9.7968 29.4187 10.0265 29.5462 10.2562 29.6719L10.6734 29.8997L16.1577 29.9606C17.684 29.2809 18.4855 28.9228 18.9234 28.7269C19.3621 28.5309 19.9902 28.2497 20.3202 28.1016C20.6502 27.9534 21.2005 27.7059 21.5437 27.5512C21.8868 27.3966 22.4662 27.1341 22.8327 26.9672C23.1993 26.8012 23.7074 26.5687 23.9624 26.4516C24.2174 26.3344 24.6459 26.1356 24.914 26.0109C25.1821 25.8862 25.5318 25.7212 25.6921 25.6444C25.8524 25.5684 26.1309 25.4316 26.3109 25.3406C26.4918 25.2497 26.6849 25.1475 26.7421 25.1137C26.8218 25.0659 26.863 25.0331 26.9249 24.9694C26.969 24.9234 27.0262 24.8541 27.0515 24.8156C27.0768 24.7772 27.1096 24.7153 27.1227 24.6797C27.1368 24.6441 27.1565 24.5784 27.1659 24.5344C27.1799 24.4669 27.1827 24.4106 27.1827 24.1781C27.1827 23.9822 27.179 23.8809 27.1696 23.8312C27.1621 23.7928 27.1462 23.7309 27.134 23.6953C27.1218 23.6597 27.0965 23.6025 27.0777 23.5687C27.0599 23.535 27.0252 23.4825 27.0018 23.4516C26.9784 23.4206 26.9043 23.34 26.8368 23.2734C26.7693 23.2059 26.6784 23.1244 26.6343 23.0916C26.5902 23.0597 26.5124 23.0128 26.4609 22.9875C26.4093 22.9631 26.3418 22.9359 26.3109 22.9275C26.2799 22.92 26.2124 22.9078 26.1609 22.9022C26.1093 22.8966 26.0437 22.8947 26.0155 22.8975C25.9874 22.9003 25.9218 22.9144 25.8702 22.9275C25.8187 22.9406 25.7071 22.9744 25.6218 23.0034C25.5365 23.0316 25.3424 23.1009 25.1905 23.1581C25.0387 23.2153 24.7452 23.3287 24.539 23.4122C24.3327 23.4947 23.9362 23.6569 23.6577 23.7722C23.3793 23.8884 22.814 24.1275 22.4015 24.3047C21.989 24.4809 21.3205 24.7706 20.9155 24.9469C20.5105 25.1231 19.888 25.3931 19.5327 25.5469C19.1765 25.7006 18.6327 25.9341 18.3234 26.0653C18.014 26.1966 17.5987 26.3728 17.3999 26.4562C17.2012 26.5397 16.8702 26.6775 16.664 26.7628C16.4577 26.8481 16.1896 26.9569 16.0687 27.0047C15.9477 27.0525 15.8062 27.1069 15.7546 27.1247C15.703 27.1425 15.6121 27.1678 15.553 27.1819C15.494 27.195 15.3796 27.2166 15.2999 27.2287C15.2202 27.2419 15.0702 27.2634 14.9671 27.2766C14.864 27.2897 14.6765 27.3103 14.5499 27.3234C14.4234 27.3356 14.2059 27.3544 14.0671 27.3656C13.9284 27.3759 13.5074 27.4031 13.1324 27.4266C12.7565 27.45 12.4452 27.4687 12.4405 27.4687C12.434 27.4687 12.4312 26.9934 12.4312 26.0625V24.6562C12.5362 24.6487 12.689 24.6375 12.839 24.6272C12.989 24.6169 13.2393 24.5981 13.3968 24.5859C13.5543 24.5728 13.7905 24.5512 13.9218 24.5381C14.053 24.525 14.2434 24.5044 14.3437 24.4912C14.444 24.4791 14.5884 24.4575 14.6652 24.4453C14.7412 24.4322 14.8546 24.4106 14.9184 24.3975C14.9812 24.3844 15.0834 24.3581 15.1452 24.3403C15.2071 24.3225 15.2999 24.2906 15.3515 24.27C15.403 24.2494 15.5146 24.1978 15.5999 24.1547C15.6852 24.1116 15.8221 24.0375 15.9046 23.9897C15.9871 23.9428 16.0987 23.8762 16.153 23.8425C16.2074 23.8087 16.3002 23.7469 16.3593 23.7056C16.4418 23.6475 16.513 23.5847 16.664 23.4328C16.7727 23.325 16.904 23.1853 16.9555 23.1234C17.0071 23.0616 17.0821 22.9669 17.1234 22.9125C17.1646 22.8581 17.2527 22.7297 17.3212 22.6266C17.3887 22.5234 17.4834 22.3734 17.5312 22.2937C17.579 22.2141 17.6324 22.1184 17.6493 22.0828C17.6662 22.0472 17.6793 22.0153 17.6774 22.0125C17.6755 22.0097 17.6409 22.0031 17.6005 21.9966C17.5593 21.99 17.4674 21.9806 17.3952 21.975C17.323 21.9703 17.1524 21.9619 17.0155 21.9562C16.8787 21.9506 16.5862 21.9422 16.364 21.9366C16.1418 21.9319 15.2859 21.9262 14.4609 21.9244C13.6359 21.9225 12.7415 21.9234 12.4734 21.9281C12.2052 21.9319 11.878 21.9403 11.7468 21.9459Z" fill="#00A6CA"/>
</g>
<defs>
<clipPath id="clip0_3761_4737">
<rect width="30" height="32.6531" fill="white"/>
</clipPath>
</defs>
</svg>
