<svg width="60" height="60" viewBox="0 0 60 60" fill="none" xmlns="http://www.w3.org/2000/svg">
<path d="M22.5 21.975V38.025C22.5 39.225 23.025 40.1 24.075 40.65C25.125 41.2 26.15 41.15 27.15 40.5L39.6 32.55C40.55 32 41.025 31.15 41.025 30C41.025 28.85 40.55 28 39.6 27.45L27.15 19.5C26.15 18.85 25.125 18.8 24.075 19.35C23.025 19.9 22.5 20.775 22.5 21.975ZM30 60C25.85 60 21.95 59.212 18.3 57.636C14.65 56.062 11.475 53.925 8.775 51.225C6.075 48.525 3.938 45.35 2.364 41.7C0.788 38.05 0 34.15 0 30C0 25.85 0.788 21.95 2.364 18.3C3.938 14.65 6.075 11.475 8.775 8.775C11.475 6.075 14.65 3.937 18.3 2.361C21.95 0.787 25.85 0 30 0C34.15 0 38.05 0.787 41.7 2.361C45.35 3.937 48.525 6.075 51.225 8.775C53.925 11.475 56.062 14.65 57.636 18.3C59.212 21.95 60 25.85 60 30C60 34.15 59.212 38.05 57.636 41.7C56.062 45.35 53.925 48.525 51.225 51.225C48.525 53.925 45.35 56.062 41.7 57.636C38.05 59.212 34.15 60 30 60ZM30 54C36.65 54 42.313 51.663 46.989 46.989C51.663 42.313 54 36.65 54 30C54 23.35 51.663 17.687 46.989 13.011C42.313 8.337 36.65 6 30 6C23.35 6 17.688 8.337 13.014 13.011C8.338 17.687 6 23.35 6 30C6 36.65 8.338 42.313 13.014 46.989C17.688 51.663 23.35 54 30 54Z" fill="white"/>
</svg>
