<svg width="27" height="27" viewBox="0 0 27 27" fill="none" xmlns="http://www.w3.org/2000/svg">
<path d="M13.8623 0.599258C14.0925 0.623489 14.4802 0.708297 14.7104 0.780989C14.9406 0.853681 15.3768 1.13234 15.6675 1.39887C15.9583 1.67753 16.2733 2.06522 16.3823 2.25907C16.4793 2.46503 16.9881 3.88253 18.4298 8.1956L21.7494 8.25618C24.5118 8.30464 25.1296 8.3531 25.4325 8.5106C25.6264 8.61964 25.9777 8.86195 26.2079 9.0558C26.4381 9.24964 26.7531 9.6858 26.9106 10.0129C27.056 10.3521 27.1893 10.7156 27.1893 10.8368C27.1893 11.0306 26.8621 11.0427 21.9433 11.0427C17.8968 11.0427 16.661 11.0064 16.5156 10.8973C16.4066 10.8125 15.7887 9.16484 15.1344 7.22637C14.4802 5.30003 13.8866 3.64022 13.8139 3.55541C13.7412 3.4706 13.5837 3.39791 13.4625 3.41003C13.3535 3.41003 13.2202 3.48272 13.1718 3.56753C13.1354 3.64022 12.5539 5.30003 11.8996 7.22637C11.1969 9.27387 10.6154 10.8004 10.4943 10.8973C10.3368 11.0064 9.36752 11.0427 2.71618 11.0427L2.64348 11.3214C2.60714 11.4668 2.64348 11.6485 2.74041 11.7333C2.82521 11.8181 4.18214 12.8479 5.74502 14.0352C7.93791 15.7071 8.60425 16.2645 8.62848 16.4946C8.65272 16.6643 8.19233 18.3846 7.62291 20.311C7.04137 22.2373 6.60521 23.8971 6.64156 23.982C6.67791 24.0546 6.79906 24.1516 6.89598 24.1879C7.00502 24.2243 8.3256 23.3883 10.0823 22.1768C11.73 21.0379 13.1718 20.0566 13.2808 19.996C13.4262 19.9233 13.6079 19.9475 13.8018 20.0445C13.9714 20.1171 15.3768 21.0743 16.9275 22.1525C18.4783 23.2308 19.8231 24.1395 19.92 24.1879C20.0169 24.2364 20.1987 24.1758 20.3198 24.0789C20.4773 23.9214 20.5016 23.8123 20.4046 23.5579C20.3441 23.3641 19.8594 21.7648 19.3143 19.9839C18.7812 18.1908 18.345 16.6279 18.345 16.4946C18.345 16.325 18.866 15.8525 21.9191 13.5748L24.1362 13.587C25.4083 13.587 26.3291 13.6354 26.3048 13.696C26.2927 13.7566 25.2993 14.5562 24.0998 15.4648C22.9004 16.3735 21.8221 17.1852 21.701 17.27C21.5071 17.3912 21.5435 17.5971 22.3552 20.2504C22.9973 22.3585 23.2275 23.2914 23.2275 23.8245C23.2396 24.3818 23.1669 24.721 22.9125 25.2541C22.6823 25.7508 22.4279 26.0658 22.016 26.3566C21.6889 26.5868 21.2043 26.8412 20.9256 26.9018C20.6348 26.9745 20.1987 27.035 19.9564 27.035C19.7019 27.035 19.2779 26.9623 19.0114 26.8775C18.7448 26.7806 17.4121 25.9325 16.0431 24.9875C14.6741 24.0425 13.511 23.2914 13.4383 23.3156C13.3656 23.352 12.2752 24.091 11.0152 24.9754C9.75521 25.8598 8.55579 26.6716 8.34983 26.7806C8.09541 26.9139 7.68348 26.9745 7.01714 26.9745C6.26598 26.9745 5.93887 26.9139 5.56329 26.72C5.29675 26.5746 4.8606 26.2233 4.59406 25.9204C4.32752 25.6175 4.03675 25.1693 3.96406 24.9027C3.87925 24.6483 3.80656 24.1395 3.80656 23.8002C3.80656 23.352 4.06098 22.31 4.65464 20.3473C5.12714 18.7966 5.50272 17.4881 5.47848 17.4396C5.45425 17.4033 4.48502 16.64 3.32195 15.7677C2.15887 14.8833 0.995792 13.9625 0.741369 13.7202C0.499061 13.4779 0.171946 13.0175 0.0386769 12.6783C-0.167285 12.2058 -0.203631 11.8908 -0.167285 11.285C-0.143054 10.8489 -0.00978485 10.2795 0.111369 10.0129C0.244638 9.74637 0.535408 9.35868 0.753485 9.14061C0.959446 8.92253 1.32291 8.64387 1.54098 8.53484C1.88022 8.34099 2.36483 8.31676 8.59214 8.24407L9.48868 5.55445C9.97329 4.07637 10.4943 2.64676 10.6154 2.38022C10.7487 2.11368 11.0031 1.7381 11.1848 1.55637C11.3544 1.36253 11.7179 1.09599 11.9844 0.950605C12.251 0.817335 12.6871 0.659835 12.9537 0.623489C13.2202 0.575028 13.6321 0.562912 13.8623 0.599258V0.599258Z" fill="#00A6CA"/>
</svg>
